<?xml version="1.0" encoding="UTF-8"?><svg id="Calque_1" xmlns="http://www.w3.org/2000/svg" viewBox="0 0 800 312.03"><path d="M210.38,38.27s.04.07,0,.11v.95s.04.07,0,.11c-.15,7.91-4.06,14.86-10.03,19.25-.66.51-1.32.95-2.05,1.35-3.77,2.31-8.2,3.59-12.92,3.59s-9.04-1.28-12.77-3.51c-.88-.48-1.72-1.02-2.49-1.68-5.64-4.28-9.37-10.91-9.66-18.45-.04,0-.04-.04-.04-.07s0-.07.04-.11v-1.9s-.04-.07-.04-.11,0-.07.04-.07c.55-13.18,11.53-23.65,24.93-23.65s24.71,10.76,25,24.2Z"/><path d="M799,156.54c.05,7.44-3.42,14.95-9.47,19.56-11.99,9.16-33.5,8.9-45.82.52-8.45-5.75-12.44-17.26-9.46-27.04,4.4-14.44,20.08-18.38,33.52-18.39,10.55-.01,22.08,4.69,27.91,13.84,2.24,3.51,3.29,7.5,3.32,11.51Z"/><path d="M373.39,174.21c-1.36-.97-2.83-1.8-4.38-2.43-5.13-2.08-10.82-2.5-16.04-4.32-3.17-1.1-6.18-2.64-8.93-4.54-5.48-3.79-9.91-9.03-12.71-15.07-2.28-4.91-3.45-10.31-3.45-15.72V46.1c0-5.41-.07-10.84-.55-16.23-.46-5.17-1.11-10.72-3.05-15.57-3.34-8.37-12.93-12.91-21.6-12.85-8.49.07-17.77,4.47-21.2,12.67-1.52,3.63-2.04,7.58-2.53,11.46-1.49,11.81-1.18,23.72-1.09,35.6.15,11.83.74,59.25.08,71.01-.58,10.33-4.13,20.14-12.01,27.13-11.42,10.13-28,11.3-40.42,2.34-8.41-6.07-13.97-15.81-14.9-26.13-.7-7.76-.55-15.63-2.31-23.24-1.13-5.02-3.62-9.52-7.83-12.59-4.43-3.26-9.88-5.02-15.37-4.94h-.33c-4.83.11-9.59,1.68-13.58,4.39-5.97,4.03-8.38,10.69-9.55,17.5-.7,4.06-.95,8.2-1.1,12.34-.18,5.22-.32,10.27-2.05,15.26-5.16,14.9-19.64,25.29-35.43,25.29-20.65,0-37.41-16.76-37.41-37.41,0-4.65.84-9.04,2.38-13.14,5.31-14.16,19-24.27,35.03-24.27h.15v-49.96c-12,0-24.2,2.33-35.18,7.25-1.06.48-2.18.95-3.33,1.54.2-1.49.29-2.53.4-3.62.15-1.32.26-2.67.33-3.99.18-2.63.26-5.27.26-7.87-.07-5.31-.55-10.61-1.46-15.85-.55-3.26-1.28-6.48-2.82-9.37-3.84-7.39-12.67-11.38-20.75-11.38s-17.09,4.21-20.86,11.82c-2.38,4.83-3.04,10.73-3.4,16.03-.44,5.89-.22,11.93-1.54,17.75-1.78,7.91-6.17,15.1-12.34,20.35-6.06,5.15-13.59,8.18-21.49,8.75v50.04c12.85-.37,25-3.51,35.87-8.9-1.81,10.89-1.64,22.22.65,33.04,2.74,12.92,8.46,25.16,16.59,35.57,8.03,10.28,18.36,18.73,30.05,24.54,12.04,5.99,25.43,9.1,38.87,9.1,24.42,0,46.52-10.03,62.37-26.17-.71.72,15.7,13.23,17.31,14.25,14.87,9.48,32.96,13.56,50.43,11.21,17.1-2.31,33.71-10.65,46.38-22.27,1.14-1.05,2.25-2.12,3.34-3.23,7.17,7.32,15.63,13.4,25,17.83,7.61,3.62,15.85,6.15,24.45,7.43,3.91.58,8.01,1.06,11.97.29,3.82-.74,7.53-2.65,10.5-5.14,5.35-4.48,8.61-11.13,8.91-18.1.02-.37.02-.73.02-1.1,0-7.94-3.88-15.69-10.35-20.33Z"/><path d="M695.35,200.89c.02-4.24.04-8.48.04-12.73.02-19.04-.18-38.06-.94-57.09-.4-10.1.13-23.05-8.2-30.37-4.47-3.93-10.55-6-16.47-6-4.98,0-10.07,1.5-14.24,4.32-6.22,4.17-8.38,10.93-9.44,17.94-1.41,9.32-.3,19.36-3.62,28.3-4.38,11.79-15.16,21.05-27.82,22.43-19.1,2.08-35.49-13.57-37.16-32.16-.7-7.76-.55-15.63-2.31-23.24-1.13-5.02-3.62-9.52-7.83-12.59-4.43-3.26-9.88-5.02-15.37-4.94h-.33c-4.83.11-9.59,1.68-13.58,4.39-5.97,4.03-8.38,10.69-9.55,17.5-.7,4.06-.95,8.2-1.1,12.34-.19,5.22-.32,10.27-2.05,15.26-5.16,14.9-19.64,25.29-35.43,25.29-20.65,0-37.41-16.76-37.41-37.41,0-4.65.84-9.04,2.38-13.14,5.31-14.16,19-24.27,35.03-24.27h.15v-49.96c-12,0-24.2,2.33-35.18,7.25-1.06.48-2.18.95-3.33,1.54.2-1.49.29-2.53.4-3.62.15-1.32.26-2.67.33-3.99.18-2.63.26-5.27.26-7.87-.07-5.31-.55-10.61-1.46-15.85-.55-3.26-1.28-6.48-2.82-9.37-3.84-7.39-12.67-11.38-20.75-11.38s-17.09,4.21-20.87,11.82c-2.38,4.83-3.04,10.73-3.4,16.03-.44,5.89-.22,11.93-1.54,17.75-1.78,7.91-6.16,15.1-12.33,20.35-6.06,5.15-13.59,8.18-21.49,8.75v50.04c12.85-.37,25-3.51,35.87-8.9-1.81,10.89-1.64,22.22.65,33.04,2.74,12.92,8.46,25.16,16.59,35.57,8.03,10.28,18.36,18.73,30.05,24.54,12.04,5.99,25.43,9.1,38.87,9.1,24.42,0,46.52-10.03,62.37-26.17,15.85,16.14,34.3,26.17,58.71,26.17,8.16,0,12.33-1.17,19.8-3.26,4.03-1.02,7.91-2.38,11.64-4.03,5.06,13.49,1.69,29.13-8.35,39.35-4.65,4.73-10.38,7.86-16.65,9.51-2.55.59-5.2.92-7.94.92-3.12,0-6.13-.43-9-1.18v50.31c2.96.31,5.96.48,9,.48,18.06,0,34.77-5.66,48.52-15.24v.16c3.17-2.27,6.25-4.67,9.09-7.35.92-.84,1.83-1.72,2.67-2.6,7.43-7.58,13.51-16.47,17.75-26.21,2.2-4.98,3.88-10.18,5.09-15.48,3.28-14.15,2.61-29.56,2.69-44.01Z"/></svg>